<mxfile host="app.diagrams.net" agent="Mozilla/5.0 (Macintosh; Intel Mac OS X 10_15_7) AppleWebKit/537.36 (KHTML, like Gecko) Chrome/137.0.0.0 Safari/537.36" version="27.1.1">
  <diagram name="Page-1" id="2YBvvXClWsGukQMizWep">
    <mxGraphModel dx="1775" dy="1302" grid="1" gridSize="10" guides="1" tooltips="1" connect="1" arrows="1" fold="1" page="1" pageScale="1" pageWidth="850" pageHeight="1100" math="0" shadow="0">
      <root>
        <mxCell id="0" />
        <mxCell id="1" parent="0" />
        <mxCell id="S7E8rsg5LW3cdiBRkNrD-34" value="" style="shape=hexagon;perimeter=hexagonPerimeter2;whiteSpace=wrap;html=1;fixedSize=1;fillColor=#d5e8d4;strokeColor=#82b366;movable=1;resizable=1;rotatable=1;deletable=1;editable=1;locked=0;connectable=1;" parent="1" vertex="1">
          <mxGeometry x="880" y="140" width="680" height="410" as="geometry" />
        </mxCell>
        <mxCell id="kOXrhcx0nlIQc85uz2FX-3" value="" style="rounded=0;whiteSpace=wrap;html=1;fillColor=#f8cecc;strokeColor=#b85450;movable=1;resizable=1;rotatable=1;deletable=1;editable=1;locked=0;connectable=1;" vertex="1" parent="1">
          <mxGeometry x="1290" y="288.25" width="230" height="93.5" as="geometry" />
        </mxCell>
        <mxCell id="kOXrhcx0nlIQc85uz2FX-79" style="edgeStyle=none;curved=1;rounded=0;orthogonalLoop=1;jettySize=auto;html=1;exitX=1;exitY=0.5;exitDx=0;exitDy=0;entryX=0;entryY=0.5;entryDx=0;entryDy=0;fontSize=12;startSize=8;endSize=8;" edge="1" parent="1" source="S7E8rsg5LW3cdiBRkNrD-1" target="kOXrhcx0nlIQc85uz2FX-78">
          <mxGeometry relative="1" as="geometry" />
        </mxCell>
        <mxCell id="S7E8rsg5LW3cdiBRkNrD-1" value="Input String" style="rounded=1;whiteSpace=wrap;html=1;" parent="1" vertex="1">
          <mxGeometry x="30" y="40" width="120" height="60" as="geometry" />
        </mxCell>
        <mxCell id="S7E8rsg5LW3cdiBRkNrD-14" value="" style="edgeStyle=orthogonalEdgeStyle;rounded=0;orthogonalLoop=1;jettySize=auto;html=1;" parent="1" source="S7E8rsg5LW3cdiBRkNrD-6" target="S7E8rsg5LW3cdiBRkNrD-10" edge="1">
          <mxGeometry relative="1" as="geometry" />
        </mxCell>
        <mxCell id="S7E8rsg5LW3cdiBRkNrD-15" style="edgeStyle=orthogonalEdgeStyle;rounded=0;orthogonalLoop=1;jettySize=auto;html=1;exitX=0.5;exitY=1;exitDx=0;exitDy=0;entryX=0.5;entryY=0;entryDx=0;entryDy=0;" parent="1" source="S7E8rsg5LW3cdiBRkNrD-6" target="S7E8rsg5LW3cdiBRkNrD-9" edge="1">
          <mxGeometry relative="1" as="geometry">
            <Array as="points">
              <mxPoint x="290" y="625" />
              <mxPoint x="220" y="625" />
            </Array>
          </mxGeometry>
        </mxCell>
        <mxCell id="S7E8rsg5LW3cdiBRkNrD-16" style="edgeStyle=orthogonalEdgeStyle;rounded=0;orthogonalLoop=1;jettySize=auto;html=1;exitX=0.5;exitY=1;exitDx=0;exitDy=0;" parent="1" source="S7E8rsg5LW3cdiBRkNrD-6" target="S7E8rsg5LW3cdiBRkNrD-11" edge="1">
          <mxGeometry relative="1" as="geometry" />
        </mxCell>
        <mxCell id="S7E8rsg5LW3cdiBRkNrD-17" style="edgeStyle=orthogonalEdgeStyle;rounded=0;orthogonalLoop=1;jettySize=auto;html=1;exitX=0.5;exitY=1;exitDx=0;exitDy=0;" parent="1" source="S7E8rsg5LW3cdiBRkNrD-6" target="S7E8rsg5LW3cdiBRkNrD-8" edge="1">
          <mxGeometry relative="1" as="geometry" />
        </mxCell>
        <mxCell id="S7E8rsg5LW3cdiBRkNrD-6" value="0x67452301EFCDAB8998BADCFE10325476" style="rounded=1;whiteSpace=wrap;html=1;" parent="1" vertex="1">
          <mxGeometry x="150" y="530" width="280" height="60" as="geometry" />
        </mxCell>
        <mxCell id="S7E8rsg5LW3cdiBRkNrD-8" value="A&lt;div&gt;0x67452301&lt;/div&gt;" style="rounded=0;whiteSpace=wrap;html=1;" parent="1" vertex="1">
          <mxGeometry x="30" y="660" width="120" height="60" as="geometry" />
        </mxCell>
        <mxCell id="S7E8rsg5LW3cdiBRkNrD-9" value="B&lt;div&gt;0xEFCDAB89&lt;/div&gt;" style="rounded=0;whiteSpace=wrap;html=1;" parent="1" vertex="1">
          <mxGeometry x="160" y="660" width="120" height="60" as="geometry" />
        </mxCell>
        <mxCell id="S7E8rsg5LW3cdiBRkNrD-10" value="C&lt;br&gt;0x98BADCFE" style="rounded=0;whiteSpace=wrap;html=1;" parent="1" vertex="1">
          <mxGeometry x="290" y="660" width="120" height="60" as="geometry" />
        </mxCell>
        <mxCell id="S7E8rsg5LW3cdiBRkNrD-11" value="D&lt;div&gt;0x10325476&lt;/div&gt;" style="rounded=0;whiteSpace=wrap;html=1;" parent="1" vertex="1">
          <mxGeometry x="419" y="660" width="120" height="60" as="geometry" />
        </mxCell>
        <mxCell id="S7E8rsg5LW3cdiBRkNrD-32" style="edgeStyle=orthogonalEdgeStyle;rounded=0;orthogonalLoop=1;jettySize=auto;html=1;exitX=1;exitY=0.5;exitDx=0;exitDy=0;entryX=0;entryY=0.5;entryDx=0;entryDy=0;" parent="1" source="S7E8rsg5LW3cdiBRkNrD-18" target="S7E8rsg5LW3cdiBRkNrD-31" edge="1">
          <mxGeometry relative="1" as="geometry" />
        </mxCell>
        <mxCell id="S7E8rsg5LW3cdiBRkNrD-18" value="A&lt;div&gt;0x67452301&lt;/div&gt;" style="rounded=0;whiteSpace=wrap;html=1;" parent="1" vertex="1">
          <mxGeometry x="30" y="780" width="120" height="60" as="geometry" />
        </mxCell>
        <mxCell id="S7E8rsg5LW3cdiBRkNrD-19" value="B&lt;div&gt;0xEFCDAB89&lt;/div&gt;" style="rounded=0;whiteSpace=wrap;html=1;" parent="1" vertex="1">
          <mxGeometry x="30" y="860" width="120" height="60" as="geometry" />
        </mxCell>
        <mxCell id="S7E8rsg5LW3cdiBRkNrD-20" value="C&lt;br&gt;0x98BADCFE" style="rounded=0;whiteSpace=wrap;html=1;" parent="1" vertex="1">
          <mxGeometry x="30" y="940" width="120" height="60" as="geometry" />
        </mxCell>
        <mxCell id="S7E8rsg5LW3cdiBRkNrD-21" value="D&lt;div&gt;0x10325476&lt;/div&gt;" style="rounded=0;whiteSpace=wrap;html=1;" parent="1" vertex="1">
          <mxGeometry x="30" y="1020" width="120" height="60" as="geometry" />
        </mxCell>
        <mxCell id="S7E8rsg5LW3cdiBRkNrD-23" value="B&#39;" style="rounded=0;whiteSpace=wrap;html=1;" parent="1" vertex="1">
          <mxGeometry x="430" y="860" width="120" height="60" as="geometry" />
        </mxCell>
        <mxCell id="S7E8rsg5LW3cdiBRkNrD-24" value="C&#39;&lt;br&gt;&lt;div&gt;0xEFCDAB89&lt;/div&gt;" style="rounded=0;whiteSpace=wrap;html=1;" parent="1" vertex="1">
          <mxGeometry x="430" y="940" width="120" height="60" as="geometry" />
        </mxCell>
        <mxCell id="S7E8rsg5LW3cdiBRkNrD-25" value="D&#39;&lt;br&gt;0x98BADCFE" style="rounded=0;whiteSpace=wrap;html=1;" parent="1" vertex="1">
          <mxGeometry x="430" y="1020" width="120" height="60" as="geometry" />
        </mxCell>
        <mxCell id="S7E8rsg5LW3cdiBRkNrD-26" value="A&#39;&lt;br&gt;&lt;div&gt;0x10325476&lt;/div&gt;" style="rounded=0;whiteSpace=wrap;html=1;" parent="1" vertex="1">
          <mxGeometry x="430" y="780" width="120" height="60" as="geometry" />
        </mxCell>
        <mxCell id="S7E8rsg5LW3cdiBRkNrD-28" value="" style="endArrow=classic;html=1;rounded=0;exitX=1;exitY=0.5;exitDx=0;exitDy=0;entryX=0;entryY=0.5;entryDx=0;entryDy=0;" parent="1" source="S7E8rsg5LW3cdiBRkNrD-19" target="S7E8rsg5LW3cdiBRkNrD-24" edge="1">
          <mxGeometry width="50" height="50" relative="1" as="geometry">
            <mxPoint x="350" y="1000" as="sourcePoint" />
            <mxPoint x="210" y="890" as="targetPoint" />
          </mxGeometry>
        </mxCell>
        <mxCell id="S7E8rsg5LW3cdiBRkNrD-29" value="" style="endArrow=classic;html=1;rounded=0;exitX=1;exitY=0.5;exitDx=0;exitDy=0;entryX=0;entryY=0.5;entryDx=0;entryDy=0;" parent="1" target="S7E8rsg5LW3cdiBRkNrD-25" edge="1">
          <mxGeometry width="50" height="50" relative="1" as="geometry">
            <mxPoint x="150" y="970" as="sourcePoint" />
            <mxPoint x="270" y="1050" as="targetPoint" />
          </mxGeometry>
        </mxCell>
        <mxCell id="S7E8rsg5LW3cdiBRkNrD-30" value="" style="endArrow=classic;html=1;rounded=0;exitX=1;exitY=0.5;exitDx=0;exitDy=0;entryX=0;entryY=0.5;entryDx=0;entryDy=0;" parent="1" target="S7E8rsg5LW3cdiBRkNrD-26" edge="1">
          <mxGeometry width="50" height="50" relative="1" as="geometry">
            <mxPoint x="150" y="1050" as="sourcePoint" />
            <mxPoint x="270" y="1130" as="targetPoint" />
          </mxGeometry>
        </mxCell>
        <mxCell id="S7E8rsg5LW3cdiBRkNrD-33" style="edgeStyle=orthogonalEdgeStyle;rounded=0;orthogonalLoop=1;jettySize=auto;html=1;exitX=1;exitY=0.5;exitDx=0;exitDy=0;entryX=0;entryY=0.5;entryDx=0;entryDy=0;" parent="1" source="S7E8rsg5LW3cdiBRkNrD-31" target="S7E8rsg5LW3cdiBRkNrD-23" edge="1">
          <mxGeometry relative="1" as="geometry" />
        </mxCell>
        <mxCell id="S7E8rsg5LW3cdiBRkNrD-31" value="Manipulation&lt;div&gt;&amp;nbsp;+&amp;nbsp;&lt;span style=&quot;background-color: initial;&quot;&gt;Shifts&lt;/span&gt;&lt;/div&gt;" style="shape=hexagon;perimeter=hexagonPerimeter2;whiteSpace=wrap;html=1;fixedSize=1;fillColor=#d5e8d4;strokeColor=#82b366;" parent="1" vertex="1">
          <mxGeometry x="245" y="830" width="90" height="60" as="geometry" />
        </mxCell>
        <mxCell id="S7E8rsg5LW3cdiBRkNrD-35" value="Manipulation + Shifts" style="text;html=1;align=center;verticalAlign=middle;resizable=0;points=[];autosize=1;strokeColor=none;fillColor=none;" parent="1" vertex="1">
          <mxGeometry x="1150" y="141" width="140" height="30" as="geometry" />
        </mxCell>
        <mxCell id="S7E8rsg5LW3cdiBRkNrD-121" style="edgeStyle=orthogonalEdgeStyle;rounded=0;orthogonalLoop=1;jettySize=auto;html=1;exitX=0.5;exitY=1;exitDx=0;exitDy=0;entryX=1;entryY=0;entryDx=0;entryDy=0;" parent="1" source="S7E8rsg5LW3cdiBRkNrD-36" target="S7E8rsg5LW3cdiBRkNrD-100" edge="1">
          <mxGeometry relative="1" as="geometry" />
        </mxCell>
        <mxCell id="S7E8rsg5LW3cdiBRkNrD-36" value="Binary value that is a multiple of 512" style="rounded=1;whiteSpace=wrap;html=1;" parent="1" vertex="1">
          <mxGeometry x="360" y="40" width="120" height="60" as="geometry" />
        </mxCell>
        <mxCell id="S7E8rsg5LW3cdiBRkNrD-38" value="32-bit" style="rounded=0;whiteSpace=wrap;html=1;" parent="1" vertex="1">
          <mxGeometry x="980" y="191" width="60" height="30" as="geometry" />
        </mxCell>
        <mxCell id="S7E8rsg5LW3cdiBRkNrD-40" value="32-bit" style="rounded=0;whiteSpace=wrap;html=1;" parent="1" vertex="1">
          <mxGeometry x="1040" y="191" width="60" height="30" as="geometry" />
        </mxCell>
        <mxCell id="S7E8rsg5LW3cdiBRkNrD-41" value="32-bit" style="rounded=0;whiteSpace=wrap;html=1;" parent="1" vertex="1">
          <mxGeometry x="1100" y="191" width="60" height="30" as="geometry" />
        </mxCell>
        <mxCell id="S7E8rsg5LW3cdiBRkNrD-42" value="32-bit" style="rounded=0;whiteSpace=wrap;html=1;" parent="1" vertex="1">
          <mxGeometry x="1160" y="191" width="60" height="30" as="geometry" />
        </mxCell>
        <mxCell id="S7E8rsg5LW3cdiBRkNrD-43" value="32-bit" style="rounded=0;whiteSpace=wrap;html=1;" parent="1" vertex="1">
          <mxGeometry x="1220" y="191" width="60" height="30" as="geometry" />
        </mxCell>
        <mxCell id="S7E8rsg5LW3cdiBRkNrD-44" value="32-bit" style="rounded=0;whiteSpace=wrap;html=1;" parent="1" vertex="1">
          <mxGeometry x="1280" y="191" width="60" height="30" as="geometry" />
        </mxCell>
        <mxCell id="S7E8rsg5LW3cdiBRkNrD-45" value="32-bit" style="rounded=0;whiteSpace=wrap;html=1;" parent="1" vertex="1">
          <mxGeometry x="1340" y="191" width="60" height="30" as="geometry" />
        </mxCell>
        <mxCell id="S7E8rsg5LW3cdiBRkNrD-46" value="32-bit" style="rounded=0;whiteSpace=wrap;html=1;" parent="1" vertex="1">
          <mxGeometry x="1400" y="191" width="60" height="30" as="geometry" />
        </mxCell>
        <mxCell id="S7E8rsg5LW3cdiBRkNrD-64" value="0" style="rounded=0;whiteSpace=wrap;html=1;" parent="1" vertex="1">
          <mxGeometry x="980" y="171" width="60" height="20" as="geometry" />
        </mxCell>
        <mxCell id="S7E8rsg5LW3cdiBRkNrD-65" value="1&lt;span style=&quot;color: rgba(0, 0, 0, 0); font-family: monospace; font-size: 0px; text-align: start; text-wrap-mode: nowrap;&quot;&gt;%3CmxGraphModel%3E%3Croot%3E%3CmxCell%20id%3D%220%22%2F%3E%3CmxCell%20id%3D%221%22%20parent%3D%220%22%2F%3E%3CmxCell%20id%3D%222%22%20value%3D%220%22%20style%3D%22rounded%3D0%3BwhiteSpace%3Dwrap%3Bhtml%3D1%3B%22%20vertex%3D%221%22%20parent%3D%221%22%3E%3CmxGeometry%20x%3D%2280%22%20y%3D%22170%22%20width%3D%2260%22%20height%3D%2220%22%20as%3D%22geometry%22%2F%3E%3C%2FmxCell%3E%3C%2Froot%3E%3C%2FmxGraphModel%3E&lt;/span&gt;" style="rounded=0;whiteSpace=wrap;html=1;" parent="1" vertex="1">
          <mxGeometry x="1040" y="171" width="60" height="20" as="geometry" />
        </mxCell>
        <mxCell id="S7E8rsg5LW3cdiBRkNrD-66" value="2&lt;span style=&quot;color: rgba(0, 0, 0, 0); font-family: monospace; font-size: 0px; text-align: start; text-wrap-mode: nowrap;&quot;&gt;%3CmxGraphModel%3E%3Croot%3E%3CmxCell%20id%3D%220%22%2F%3E%3CmxCell%20id%3D%221%22%20parent%3D%220%22%2F%3E%3CmxCell%20id%3D%222%22%20value%3D%220%22%20style%3D%22rounded%3D0%3BwhiteSpace%3Dwrap%3Bhtml%3D1%3B%22%20vertex%3D%221%22%20parent%3D%221%22%3E%3CmxGeometry%20x%3D%2280%22%20y%3D%22170%22%20width%3D%2260%22%20height%3D%2220%22%20as%3D%22geometry%22%2F%3E%3C%2FmxCell%3E%3C%2Froot%3E%3C%2FmxGraphModel%3E&lt;/span&gt;&lt;span style=&quot;color: rgba(0, 0, 0, 0); font-family: monospace; font-size: 0px; text-align: start; text-wrap-mode: nowrap;&quot;&gt;%3CmxGraphModel%3E%3Croot%3E%3CmxCell%20id%3D%220%22%2F%3E%3CmxCell%20id%3D%221%22%20parent%3D%220%22%2F%3E%3CmxCell%20id%3D%222%22%20value%3D%220%22%20style%3D%22rounded%3D0%3BwhiteSpace%3Dwrap%3Bhtml%3D1%3B%22%20vertex%3D%221%22%20parent%3D%221%22%3E%3CmxGeometry%20x%3D%2280%22%20y%3D%22170%22%20width%3D%2260%22%20height%3D%2220%22%20as%3D%22geometry%22%2F%3E%3C%2FmxCell%3E%3C%2Froot%3E%3C%2FmxGraphModel%3E&lt;/span&gt;" style="rounded=0;whiteSpace=wrap;html=1;" parent="1" vertex="1">
          <mxGeometry x="1100" y="171" width="60" height="20" as="geometry" />
        </mxCell>
        <mxCell id="S7E8rsg5LW3cdiBRkNrD-67" value="3" style="rounded=0;whiteSpace=wrap;html=1;" parent="1" vertex="1">
          <mxGeometry x="1160" y="171" width="60" height="20" as="geometry" />
        </mxCell>
        <mxCell id="S7E8rsg5LW3cdiBRkNrD-68" value="4" style="rounded=0;whiteSpace=wrap;html=1;" parent="1" vertex="1">
          <mxGeometry x="1220" y="171" width="60" height="20" as="geometry" />
        </mxCell>
        <mxCell id="S7E8rsg5LW3cdiBRkNrD-69" value="5" style="rounded=0;whiteSpace=wrap;html=1;" parent="1" vertex="1">
          <mxGeometry x="1280" y="171" width="60" height="20" as="geometry" />
        </mxCell>
        <mxCell id="S7E8rsg5LW3cdiBRkNrD-70" value="6" style="rounded=0;whiteSpace=wrap;html=1;" parent="1" vertex="1">
          <mxGeometry x="1340" y="171" width="60" height="20" as="geometry" />
        </mxCell>
        <mxCell id="S7E8rsg5LW3cdiBRkNrD-71" value="7" style="rounded=0;whiteSpace=wrap;html=1;" parent="1" vertex="1">
          <mxGeometry x="1400" y="171" width="60" height="20" as="geometry" />
        </mxCell>
        <mxCell id="S7E8rsg5LW3cdiBRkNrD-72" value="32-bit" style="rounded=0;whiteSpace=wrap;html=1;" parent="1" vertex="1">
          <mxGeometry x="980" y="241" width="60" height="30" as="geometry" />
        </mxCell>
        <mxCell id="S7E8rsg5LW3cdiBRkNrD-73" value="32-bit" style="rounded=0;whiteSpace=wrap;html=1;" parent="1" vertex="1">
          <mxGeometry x="1040" y="241" width="60" height="30" as="geometry" />
        </mxCell>
        <mxCell id="S7E8rsg5LW3cdiBRkNrD-74" value="32-bit" style="rounded=0;whiteSpace=wrap;html=1;" parent="1" vertex="1">
          <mxGeometry x="1100" y="241" width="60" height="30" as="geometry" />
        </mxCell>
        <mxCell id="yUPdP5pt4CSuNFCbjP1w-25" style="edgeStyle=none;curved=1;rounded=0;orthogonalLoop=1;jettySize=auto;html=1;exitX=1;exitY=1;exitDx=0;exitDy=0;fontSize=12;startSize=8;endSize=8;entryX=0.5;entryY=0;entryDx=0;entryDy=0;" parent="1" source="S7E8rsg5LW3cdiBRkNrD-75" target="yUPdP5pt4CSuNFCbjP1w-24" edge="1">
          <mxGeometry relative="1" as="geometry">
            <mxPoint x="1230" y="300" as="targetPoint" />
          </mxGeometry>
        </mxCell>
        <mxCell id="S7E8rsg5LW3cdiBRkNrD-75" value="32-bit" style="rounded=0;whiteSpace=wrap;html=1;" parent="1" vertex="1">
          <mxGeometry x="1160" y="241" width="60" height="30" as="geometry" />
        </mxCell>
        <mxCell id="S7E8rsg5LW3cdiBRkNrD-76" value="32-bit" style="rounded=0;whiteSpace=wrap;html=1;" parent="1" vertex="1">
          <mxGeometry x="1220" y="241" width="60" height="30" as="geometry" />
        </mxCell>
        <mxCell id="S7E8rsg5LW3cdiBRkNrD-77" value="32-bit" style="rounded=0;whiteSpace=wrap;html=1;" parent="1" vertex="1">
          <mxGeometry x="1280" y="241" width="60" height="30" as="geometry" />
        </mxCell>
        <mxCell id="S7E8rsg5LW3cdiBRkNrD-78" value="32-bit" style="rounded=0;whiteSpace=wrap;html=1;" parent="1" vertex="1">
          <mxGeometry x="1340" y="241" width="60" height="30" as="geometry" />
        </mxCell>
        <mxCell id="S7E8rsg5LW3cdiBRkNrD-79" value="32-bit" style="rounded=0;whiteSpace=wrap;html=1;" parent="1" vertex="1">
          <mxGeometry x="1400" y="241" width="60" height="30" as="geometry" />
        </mxCell>
        <mxCell id="S7E8rsg5LW3cdiBRkNrD-80" value="8" style="rounded=0;whiteSpace=wrap;html=1;" parent="1" vertex="1">
          <mxGeometry x="980" y="221" width="60" height="20" as="geometry" />
        </mxCell>
        <mxCell id="S7E8rsg5LW3cdiBRkNrD-81" value="9" style="rounded=0;whiteSpace=wrap;html=1;" parent="1" vertex="1">
          <mxGeometry x="1040" y="221" width="60" height="20" as="geometry" />
        </mxCell>
        <mxCell id="S7E8rsg5LW3cdiBRkNrD-82" value="10" style="rounded=0;whiteSpace=wrap;html=1;" parent="1" vertex="1">
          <mxGeometry x="1100" y="221" width="60" height="20" as="geometry" />
        </mxCell>
        <mxCell id="S7E8rsg5LW3cdiBRkNrD-83" value="11" style="rounded=0;whiteSpace=wrap;html=1;" parent="1" vertex="1">
          <mxGeometry x="1160" y="221" width="60" height="20" as="geometry" />
        </mxCell>
        <mxCell id="S7E8rsg5LW3cdiBRkNrD-84" value="12" style="rounded=0;whiteSpace=wrap;html=1;" parent="1" vertex="1">
          <mxGeometry x="1220" y="221" width="60" height="20" as="geometry" />
        </mxCell>
        <mxCell id="S7E8rsg5LW3cdiBRkNrD-85" value="13" style="rounded=0;whiteSpace=wrap;html=1;" parent="1" vertex="1">
          <mxGeometry x="1280" y="221" width="60" height="20" as="geometry" />
        </mxCell>
        <mxCell id="S7E8rsg5LW3cdiBRkNrD-86" value="14" style="rounded=0;whiteSpace=wrap;html=1;" parent="1" vertex="1">
          <mxGeometry x="1340" y="221" width="60" height="20" as="geometry" />
        </mxCell>
        <mxCell id="S7E8rsg5LW3cdiBRkNrD-87" value="15" style="rounded=0;whiteSpace=wrap;html=1;" parent="1" vertex="1">
          <mxGeometry x="1400" y="221" width="60" height="20" as="geometry" />
        </mxCell>
        <mxCell id="S7E8rsg5LW3cdiBRkNrD-89" value="32-bit" style="rounded=0;whiteSpace=wrap;html=1;" parent="1" vertex="1">
          <mxGeometry x="180" y="200" width="60" height="30" as="geometry" />
        </mxCell>
        <mxCell id="S7E8rsg5LW3cdiBRkNrD-90" value="32-bit" style="rounded=0;whiteSpace=wrap;html=1;" parent="1" vertex="1">
          <mxGeometry x="240" y="200" width="60" height="30" as="geometry" />
        </mxCell>
        <mxCell id="S7E8rsg5LW3cdiBRkNrD-91" value="32-bit" style="rounded=0;whiteSpace=wrap;html=1;" parent="1" vertex="1">
          <mxGeometry x="300" y="200" width="60" height="30" as="geometry" />
        </mxCell>
        <mxCell id="S7E8rsg5LW3cdiBRkNrD-92" value="32-bit" style="rounded=0;whiteSpace=wrap;html=1;" parent="1" vertex="1">
          <mxGeometry x="360" y="200" width="60" height="30" as="geometry" />
        </mxCell>
        <mxCell id="S7E8rsg5LW3cdiBRkNrD-93" value="32-bit" style="rounded=0;whiteSpace=wrap;html=1;" parent="1" vertex="1">
          <mxGeometry x="420" y="200" width="60" height="30" as="geometry" />
        </mxCell>
        <mxCell id="S7E8rsg5LW3cdiBRkNrD-94" value="32-bit" style="rounded=0;whiteSpace=wrap;html=1;" parent="1" vertex="1">
          <mxGeometry x="480" y="200" width="60" height="30" as="geometry" />
        </mxCell>
        <mxCell id="S7E8rsg5LW3cdiBRkNrD-95" value="32-bit" style="rounded=0;whiteSpace=wrap;html=1;" parent="1" vertex="1">
          <mxGeometry x="540" y="200" width="60" height="30" as="geometry" />
        </mxCell>
        <mxCell id="S7E8rsg5LW3cdiBRkNrD-96" value="32-bit" style="rounded=0;whiteSpace=wrap;html=1;" parent="1" vertex="1">
          <mxGeometry x="600" y="200" width="60" height="30" as="geometry" />
        </mxCell>
        <mxCell id="S7E8rsg5LW3cdiBRkNrD-97" value="0" style="rounded=0;whiteSpace=wrap;html=1;" parent="1" vertex="1">
          <mxGeometry x="180" y="180" width="60" height="20" as="geometry" />
        </mxCell>
        <mxCell id="S7E8rsg5LW3cdiBRkNrD-98" value="1&lt;span style=&quot;color: rgba(0, 0, 0, 0); font-family: monospace; font-size: 0px; text-align: start; text-wrap-mode: nowrap;&quot;&gt;%3CmxGraphModel%3E%3Croot%3E%3CmxCell%20id%3D%220%22%2F%3E%3CmxCell%20id%3D%221%22%20parent%3D%220%22%2F%3E%3CmxCell%20id%3D%222%22%20value%3D%220%22%20style%3D%22rounded%3D0%3BwhiteSpace%3Dwrap%3Bhtml%3D1%3B%22%20vertex%3D%221%22%20parent%3D%221%22%3E%3CmxGeometry%20x%3D%2280%22%20y%3D%22170%22%20width%3D%2260%22%20height%3D%2220%22%20as%3D%22geometry%22%2F%3E%3C%2FmxCell%3E%3C%2Froot%3E%3C%2FmxGraphModel%3E&lt;/span&gt;" style="rounded=0;whiteSpace=wrap;html=1;" parent="1" vertex="1">
          <mxGeometry x="240" y="180" width="60" height="20" as="geometry" />
        </mxCell>
        <mxCell id="S7E8rsg5LW3cdiBRkNrD-99" value="2&lt;span style=&quot;color: rgba(0, 0, 0, 0); font-family: monospace; font-size: 0px; text-align: start; text-wrap-mode: nowrap;&quot;&gt;%3CmxGraphModel%3E%3Croot%3E%3CmxCell%20id%3D%220%22%2F%3E%3CmxCell%20id%3D%221%22%20parent%3D%220%22%2F%3E%3CmxCell%20id%3D%222%22%20value%3D%220%22%20style%3D%22rounded%3D0%3BwhiteSpace%3Dwrap%3Bhtml%3D1%3B%22%20vertex%3D%221%22%20parent%3D%221%22%3E%3CmxGeometry%20x%3D%2280%22%20y%3D%22170%22%20width%3D%2260%22%20height%3D%2220%22%20as%3D%22geometry%22%2F%3E%3C%2FmxCell%3E%3C%2Froot%3E%3C%2FmxGraphModel%3E&lt;/span&gt;&lt;span style=&quot;color: rgba(0, 0, 0, 0); font-family: monospace; font-size: 0px; text-align: start; text-wrap-mode: nowrap;&quot;&gt;%3CmxGraphModel%3E%3Croot%3E%3CmxCell%20id%3D%220%22%2F%3E%3CmxCell%20id%3D%221%22%20parent%3D%220%22%2F%3E%3CmxCell%20id%3D%222%22%20value%3D%220%22%20style%3D%22rounded%3D0%3BwhiteSpace%3Dwrap%3Bhtml%3D1%3B%22%20vertex%3D%221%22%20parent%3D%221%22%3E%3CmxGeometry%20x%3D%2280%22%20y%3D%22170%22%20width%3D%2260%22%20height%3D%2220%22%20as%3D%22geometry%22%2F%3E%3C%2FmxCell%3E%3C%2Froot%3E%3C%2FmxGraphModel%3E&lt;/span&gt;" style="rounded=0;whiteSpace=wrap;html=1;" parent="1" vertex="1">
          <mxGeometry x="300" y="180" width="60" height="20" as="geometry" />
        </mxCell>
        <mxCell id="S7E8rsg5LW3cdiBRkNrD-100" value="3" style="rounded=0;whiteSpace=wrap;html=1;" parent="1" vertex="1">
          <mxGeometry x="360" y="180" width="60" height="20" as="geometry" />
        </mxCell>
        <mxCell id="S7E8rsg5LW3cdiBRkNrD-101" value="4" style="rounded=0;whiteSpace=wrap;html=1;" parent="1" vertex="1">
          <mxGeometry x="420" y="180" width="60" height="20" as="geometry" />
        </mxCell>
        <mxCell id="S7E8rsg5LW3cdiBRkNrD-102" value="5" style="rounded=0;whiteSpace=wrap;html=1;" parent="1" vertex="1">
          <mxGeometry x="480" y="180" width="60" height="20" as="geometry" />
        </mxCell>
        <mxCell id="S7E8rsg5LW3cdiBRkNrD-103" value="6" style="rounded=0;whiteSpace=wrap;html=1;" parent="1" vertex="1">
          <mxGeometry x="540" y="180" width="60" height="20" as="geometry" />
        </mxCell>
        <mxCell id="S7E8rsg5LW3cdiBRkNrD-104" value="7" style="rounded=0;whiteSpace=wrap;html=1;" parent="1" vertex="1">
          <mxGeometry x="600" y="180" width="60" height="20" as="geometry" />
        </mxCell>
        <mxCell id="S7E8rsg5LW3cdiBRkNrD-105" value="32-bit" style="rounded=0;whiteSpace=wrap;html=1;" parent="1" vertex="1">
          <mxGeometry x="180" y="250" width="60" height="30" as="geometry" />
        </mxCell>
        <mxCell id="S7E8rsg5LW3cdiBRkNrD-106" value="32-bit" style="rounded=0;whiteSpace=wrap;html=1;" parent="1" vertex="1">
          <mxGeometry x="240" y="250" width="60" height="30" as="geometry" />
        </mxCell>
        <mxCell id="S7E8rsg5LW3cdiBRkNrD-107" value="32-bit" style="rounded=0;whiteSpace=wrap;html=1;" parent="1" vertex="1">
          <mxGeometry x="300" y="250" width="60" height="30" as="geometry" />
        </mxCell>
        <mxCell id="S7E8rsg5LW3cdiBRkNrD-108" value="32-bit" style="rounded=0;whiteSpace=wrap;html=1;" parent="1" vertex="1">
          <mxGeometry x="360" y="250" width="60" height="30" as="geometry" />
        </mxCell>
        <mxCell id="S7E8rsg5LW3cdiBRkNrD-109" value="32-bit" style="rounded=0;whiteSpace=wrap;html=1;" parent="1" vertex="1">
          <mxGeometry x="420" y="250" width="60" height="30" as="geometry" />
        </mxCell>
        <mxCell id="S7E8rsg5LW3cdiBRkNrD-110" value="32-bit" style="rounded=0;whiteSpace=wrap;html=1;" parent="1" vertex="1">
          <mxGeometry x="480" y="250" width="60" height="30" as="geometry" />
        </mxCell>
        <mxCell id="S7E8rsg5LW3cdiBRkNrD-111" value="32-bit" style="rounded=0;whiteSpace=wrap;html=1;" parent="1" vertex="1">
          <mxGeometry x="540" y="250" width="60" height="30" as="geometry" />
        </mxCell>
        <mxCell id="S7E8rsg5LW3cdiBRkNrD-112" value="32-bit" style="rounded=0;whiteSpace=wrap;html=1;" parent="1" vertex="1">
          <mxGeometry x="600" y="250" width="60" height="30" as="geometry" />
        </mxCell>
        <mxCell id="S7E8rsg5LW3cdiBRkNrD-113" value="8" style="rounded=0;whiteSpace=wrap;html=1;" parent="1" vertex="1">
          <mxGeometry x="180" y="230" width="60" height="20" as="geometry" />
        </mxCell>
        <mxCell id="S7E8rsg5LW3cdiBRkNrD-114" value="9" style="rounded=0;whiteSpace=wrap;html=1;" parent="1" vertex="1">
          <mxGeometry x="240" y="230" width="60" height="20" as="geometry" />
        </mxCell>
        <mxCell id="S7E8rsg5LW3cdiBRkNrD-115" value="10" style="rounded=0;whiteSpace=wrap;html=1;" parent="1" vertex="1">
          <mxGeometry x="300" y="230" width="60" height="20" as="geometry" />
        </mxCell>
        <mxCell id="S7E8rsg5LW3cdiBRkNrD-116" value="11" style="rounded=0;whiteSpace=wrap;html=1;" parent="1" vertex="1">
          <mxGeometry x="360" y="230" width="60" height="20" as="geometry" />
        </mxCell>
        <mxCell id="S7E8rsg5LW3cdiBRkNrD-117" value="12" style="rounded=0;whiteSpace=wrap;html=1;" parent="1" vertex="1">
          <mxGeometry x="420" y="230" width="60" height="20" as="geometry" />
        </mxCell>
        <mxCell id="S7E8rsg5LW3cdiBRkNrD-118" value="13" style="rounded=0;whiteSpace=wrap;html=1;" parent="1" vertex="1">
          <mxGeometry x="480" y="230" width="60" height="20" as="geometry" />
        </mxCell>
        <mxCell id="S7E8rsg5LW3cdiBRkNrD-119" value="14" style="rounded=0;whiteSpace=wrap;html=1;" parent="1" vertex="1">
          <mxGeometry x="540" y="230" width="60" height="20" as="geometry" />
        </mxCell>
        <mxCell id="S7E8rsg5LW3cdiBRkNrD-120" value="15" style="rounded=0;whiteSpace=wrap;html=1;" parent="1" vertex="1">
          <mxGeometry x="600" y="230" width="60" height="20" as="geometry" />
        </mxCell>
        <mxCell id="yUPdP5pt4CSuNFCbjP1w-3" value="A" style="rounded=1;whiteSpace=wrap;html=1;" parent="1" vertex="1">
          <mxGeometry x="920" y="320" width="40" height="30" as="geometry" />
        </mxCell>
        <mxCell id="yUPdP5pt4CSuNFCbjP1w-17" value="" style="endArrow=block;dashed=1;endFill=0;endSize=12;html=1;rounded=0;fontSize=12;curved=1;exitX=1;exitY=0.5;exitDx=0;exitDy=0;entryX=0;entryY=0.5;entryDx=0;entryDy=0;" parent="1" source="yUPdP5pt4CSuNFCbjP1w-3" target="yUPdP5pt4CSuNFCbjP1w-18" edge="1">
          <mxGeometry width="160" relative="1" as="geometry">
            <mxPoint x="960" y="340" as="sourcePoint" />
            <mxPoint x="1020" y="330" as="targetPoint" />
          </mxGeometry>
        </mxCell>
        <mxCell id="yUPdP5pt4CSuNFCbjP1w-18" value="F (B, C, D)" style="rounded=0;whiteSpace=wrap;html=1;" parent="1" vertex="1">
          <mxGeometry x="1050" y="320" width="70" height="30" as="geometry" />
        </mxCell>
        <mxCell id="yUPdP5pt4CSuNFCbjP1w-19" value="+" style="ellipse;whiteSpace=wrap;html=1;" parent="1" vertex="1">
          <mxGeometry x="990" y="325" width="20" height="20" as="geometry" />
        </mxCell>
        <mxCell id="yUPdP5pt4CSuNFCbjP1w-21" value="" style="endArrow=block;dashed=1;endFill=0;endSize=12;html=1;rounded=0;fontSize=12;curved=1;exitX=1;exitY=0.5;exitDx=0;exitDy=0;entryX=0;entryY=0.5;entryDx=0;entryDy=0;" parent="1" target="yUPdP5pt4CSuNFCbjP1w-24" edge="1">
          <mxGeometry width="160" relative="1" as="geometry">
            <mxPoint x="1120" y="334" as="sourcePoint" />
            <mxPoint x="1210" y="335" as="targetPoint" />
          </mxGeometry>
        </mxCell>
        <mxCell id="yUPdP5pt4CSuNFCbjP1w-23" value="+" style="ellipse;whiteSpace=wrap;html=1;" parent="1" vertex="1">
          <mxGeometry x="1150" y="324" width="20" height="20" as="geometry" />
        </mxCell>
        <mxCell id="kOXrhcx0nlIQc85uz2FX-8" style="edgeStyle=none;curved=1;rounded=0;orthogonalLoop=1;jettySize=auto;html=1;exitX=1;exitY=0.5;exitDx=0;exitDy=0;entryX=0;entryY=0.5;entryDx=0;entryDy=0;fontSize=12;startSize=8;endSize=8;" edge="1" parent="1" source="yUPdP5pt4CSuNFCbjP1w-24" target="kOXrhcx0nlIQc85uz2FX-2">
          <mxGeometry relative="1" as="geometry" />
        </mxCell>
        <mxCell id="yUPdP5pt4CSuNFCbjP1w-24" value="i" style="rhombus;whiteSpace=wrap;html=1;" parent="1" vertex="1">
          <mxGeometry x="1210" y="315" width="40" height="40" as="geometry" />
        </mxCell>
        <mxCell id="kOXrhcx0nlIQc85uz2FX-9" style="edgeStyle=none;curved=1;rounded=0;orthogonalLoop=1;jettySize=auto;html=1;exitX=1;exitY=0.5;exitDx=0;exitDy=0;fontSize=12;startSize=8;endSize=8;" edge="1" parent="1" source="kOXrhcx0nlIQc85uz2FX-2">
          <mxGeometry relative="1" as="geometry">
            <mxPoint x="1400" y="334" as="targetPoint" />
          </mxGeometry>
        </mxCell>
        <mxCell id="kOXrhcx0nlIQc85uz2FX-2" value="+" style="ellipse;whiteSpace=wrap;html=1;" vertex="1" parent="1">
          <mxGeometry x="1330" y="324" width="20" height="20" as="geometry" />
        </mxCell>
        <mxCell id="kOXrhcx0nlIQc85uz2FX-5" value="+" style="ellipse;whiteSpace=wrap;html=1;" vertex="1" parent="1">
          <mxGeometry x="1470" y="324" width="20" height="20" as="geometry" />
        </mxCell>
        <mxCell id="kOXrhcx0nlIQc85uz2FX-10" style="edgeStyle=none;curved=1;rounded=0;orthogonalLoop=1;jettySize=auto;html=1;exitX=1;exitY=0.5;exitDx=0;exitDy=0;entryX=0;entryY=0.5;entryDx=0;entryDy=0;fontSize=12;startSize=8;endSize=8;" edge="1" parent="1" source="kOXrhcx0nlIQc85uz2FX-6" target="kOXrhcx0nlIQc85uz2FX-5">
          <mxGeometry relative="1" as="geometry" />
        </mxCell>
        <mxCell id="kOXrhcx0nlIQc85uz2FX-6" value="" style="ellipse;whiteSpace=wrap;html=1;" vertex="1" parent="1">
          <mxGeometry x="1399" y="325" width="20" height="20" as="geometry" />
        </mxCell>
        <mxCell id="kOXrhcx0nlIQc85uz2FX-7" value="" style="html=1;shadow=0;dashed=0;align=center;verticalAlign=middle;shape=mxgraph.arrows2.uTurnArrow;dy=0.84;arrowHead=7.2;dx2=4.14;fillColor=#dae8fc;strokeColor=#6c8ebf;rotation=45;" vertex="1" parent="1">
          <mxGeometry x="1403" y="323" width="10" height="18.25" as="geometry" />
        </mxCell>
        <mxCell id="kOXrhcx0nlIQc85uz2FX-17" style="edgeStyle=none;curved=1;rounded=0;orthogonalLoop=1;jettySize=auto;html=1;exitX=0.5;exitY=0;exitDx=0;exitDy=0;entryX=0.5;entryY=1;entryDx=0;entryDy=0;fontSize=12;startSize=8;endSize=8;" edge="1" parent="1" source="kOXrhcx0nlIQc85uz2FX-11" target="kOXrhcx0nlIQc85uz2FX-2">
          <mxGeometry relative="1" as="geometry" />
        </mxCell>
        <mxCell id="kOXrhcx0nlIQc85uz2FX-11" value="K[]" style="swimlane;fontStyle=0;childLayout=stackLayout;horizontal=1;startSize=26;fillColor=none;horizontalStack=0;resizeParent=1;resizeParentMax=0;resizeLast=0;collapsible=1;marginBottom=0;html=1;" vertex="1" parent="1">
          <mxGeometry x="1310" y="390" width="60" height="52" as="geometry" />
        </mxCell>
        <mxCell id="kOXrhcx0nlIQc85uz2FX-18" style="edgeStyle=none;curved=1;rounded=0;orthogonalLoop=1;jettySize=auto;html=1;exitX=0.5;exitY=0;exitDx=0;exitDy=0;entryX=0.5;entryY=1;entryDx=0;entryDy=0;fontSize=12;startSize=8;endSize=8;" edge="1" parent="1" source="kOXrhcx0nlIQc85uz2FX-15" target="kOXrhcx0nlIQc85uz2FX-6">
          <mxGeometry relative="1" as="geometry" />
        </mxCell>
        <mxCell id="kOXrhcx0nlIQc85uz2FX-15" value="r[]" style="swimlane;fontStyle=0;childLayout=stackLayout;horizontal=1;startSize=26;fillColor=none;horizontalStack=0;resizeParent=1;resizeParentMax=0;resizeLast=0;collapsible=1;marginBottom=0;html=1;" vertex="1" parent="1">
          <mxGeometry x="1379" y="390" width="60" height="52" as="geometry" />
        </mxCell>
        <mxCell id="kOXrhcx0nlIQc85uz2FX-19" style="edgeStyle=none;curved=1;rounded=0;orthogonalLoop=1;jettySize=auto;html=1;exitX=0.5;exitY=0;exitDx=0;exitDy=0;fontSize=12;startSize=8;endSize=8;" edge="1" parent="1" source="kOXrhcx0nlIQc85uz2FX-16" target="kOXrhcx0nlIQc85uz2FX-5">
          <mxGeometry relative="1" as="geometry" />
        </mxCell>
        <mxCell id="kOXrhcx0nlIQc85uz2FX-16" value="B" style="rounded=0;whiteSpace=wrap;html=1;" vertex="1" parent="1">
          <mxGeometry x="1465" y="390" width="30" height="30" as="geometry" />
        </mxCell>
        <mxCell id="kOXrhcx0nlIQc85uz2FX-80" style="edgeStyle=none;curved=1;rounded=0;orthogonalLoop=1;jettySize=auto;html=1;exitX=1;exitY=0.5;exitDx=0;exitDy=0;entryX=0;entryY=0.5;entryDx=0;entryDy=0;fontSize=12;startSize=8;endSize=8;" edge="1" parent="1" source="kOXrhcx0nlIQc85uz2FX-78" target="S7E8rsg5LW3cdiBRkNrD-36">
          <mxGeometry relative="1" as="geometry" />
        </mxCell>
        <mxCell id="kOXrhcx0nlIQc85uz2FX-78" value="Padding" style="shape=step;perimeter=stepPerimeter;whiteSpace=wrap;html=1;fixedSize=1;fillColor=#ffe6cc;strokeColor=#d79b00;" vertex="1" parent="1">
          <mxGeometry x="200" y="30" width="120" height="80" as="geometry" />
        </mxCell>
        <mxCell id="kOXrhcx0nlIQc85uz2FX-81" value="" style="shape=step;perimeter=stepPerimeter;whiteSpace=wrap;html=1;fixedSize=1;size=60;fillColor=#ffe6cc;strokeColor=#d79b00;movable=0;resizable=0;rotatable=0;deletable=0;editable=0;locked=1;connectable=0;" vertex="1" parent="1">
          <mxGeometry x="850" y="680" width="1000" height="850" as="geometry" />
        </mxCell>
        <mxCell id="kOXrhcx0nlIQc85uz2FX-82" value="Padding&amp;nbsp;" style="text;html=1;align=center;verticalAlign=middle;resizable=0;points=[];autosize=1;strokeColor=none;fillColor=none;fontSize=16;" vertex="1" parent="1">
          <mxGeometry x="1305" y="690" width="90" height="30" as="geometry" />
        </mxCell>
        <mxCell id="kOXrhcx0nlIQc85uz2FX-86" style="edgeStyle=none;curved=1;rounded=0;orthogonalLoop=1;jettySize=auto;html=1;exitX=1;exitY=0.5;exitDx=0;exitDy=0;fontSize=12;startSize=8;endSize=8;" edge="1" parent="1" source="kOXrhcx0nlIQc85uz2FX-83" target="kOXrhcx0nlIQc85uz2FX-84">
          <mxGeometry relative="1" as="geometry" />
        </mxCell>
        <mxCell id="kOXrhcx0nlIQc85uz2FX-83" value="Stuy CS" style="rounded=1;whiteSpace=wrap;html=1;" vertex="1" parent="1">
          <mxGeometry x="1020" y="760" width="90" height="50" as="geometry" />
        </mxCell>
        <mxCell id="kOXrhcx0nlIQc85uz2FX-101" style="edgeStyle=none;curved=1;rounded=0;orthogonalLoop=1;jettySize=auto;html=1;exitX=0.5;exitY=1;exitDx=0;exitDy=0;entryX=0.5;entryY=0;entryDx=0;entryDy=0;fontSize=12;startSize=8;endSize=8;" edge="1" parent="1" source="kOXrhcx0nlIQc85uz2FX-84" target="kOXrhcx0nlIQc85uz2FX-89">
          <mxGeometry relative="1" as="geometry" />
        </mxCell>
        <mxCell id="kOXrhcx0nlIQc85uz2FX-84" value="&lt;font style=&quot;font-size: 16px;&quot;&gt;01010011 01110100 01110101 01111001 01000011 01010011 00001010&lt;/font&gt;" style="rounded=0;whiteSpace=wrap;html=1;" vertex="1" parent="1">
          <mxGeometry x="1195" y="750" width="310" height="70" as="geometry" />
        </mxCell>
        <mxCell id="kOXrhcx0nlIQc85uz2FX-99" style="edgeStyle=none;curved=1;rounded=0;orthogonalLoop=1;jettySize=auto;html=1;exitX=0.5;exitY=1;exitDx=0;exitDy=0;fontSize=12;startSize=8;endSize=8;" edge="1" parent="1" source="kOXrhcx0nlIQc85uz2FX-89">
          <mxGeometry relative="1" as="geometry">
            <mxPoint x="1350.2222222222222" y="960" as="targetPoint" />
          </mxGeometry>
        </mxCell>
        <mxCell id="kOXrhcx0nlIQc85uz2FX-89" value="&lt;font style=&quot;font-size: 16px;&quot;&gt;01010011 01110100 01110101 01111001 01000011 01010011 00001010 &lt;font style=&quot;color: light-dark(rgb(0, 0, 0), rgb(0, 255, 0));&quot;&gt;1&lt;/font&gt;&lt;/font&gt;" style="rounded=0;whiteSpace=wrap;html=1;" vertex="1" parent="1">
          <mxGeometry x="1195" y="860" width="310" height="70" as="geometry" />
        </mxCell>
        <mxCell id="kOXrhcx0nlIQc85uz2FX-98" style="edgeStyle=none;curved=1;rounded=0;orthogonalLoop=1;jettySize=auto;html=1;exitX=0.5;exitY=1;exitDx=0;exitDy=0;entryX=0.5;entryY=0;entryDx=0;entryDy=0;fontSize=12;startSize=8;endSize=8;" edge="1" parent="1" source="kOXrhcx0nlIQc85uz2FX-91" target="kOXrhcx0nlIQc85uz2FX-92">
          <mxGeometry relative="1" as="geometry" />
        </mxCell>
        <mxCell id="kOXrhcx0nlIQc85uz2FX-91" value="&lt;font style=&quot;font-size: 16px;&quot;&gt;01010011 01110100 01110101 01111001 01000011 01010011 00001010&amp;nbsp;&lt;font style=&quot;color: light-dark(rgb(0, 0, 0), rgb(0, 255, 0));&quot;&gt;1&lt;/font&gt;&lt;font style=&quot;color: light-dark(rgb(0, 0, 0), rgb(51, 153, 255));&quot;&gt;0000000&amp;nbsp; &lt;/font&gt;&lt;/font&gt;&lt;span style=&quot;color: light-dark(rgb(0, 0, 0), rgb(51, 153, 255)); font-size: 16px; background-color: transparent;&quot;&gt;00000000&amp;nbsp;&lt;/span&gt;&lt;span style=&quot;color: rgb(51, 153, 255); font-size: 16px;&quot;&gt;00000000&amp;nbsp;&lt;/span&gt;&lt;span style=&quot;color: rgb(51, 153, 255); font-size: 16px;&quot;&gt;00000000&amp;nbsp;&lt;/span&gt;&lt;span style=&quot;color: rgb(51, 153, 255); font-size: 16px;&quot;&gt;00000000&amp;nbsp;&lt;/span&gt;&lt;span style=&quot;color: rgb(51, 153, 255); font-size: 16px;&quot;&gt;00000000&amp;nbsp;&lt;/span&gt;&lt;span style=&quot;color: rgb(51, 153, 255); font-size: 16px;&quot;&gt;00000000&amp;nbsp;&lt;/span&gt;&lt;span style=&quot;color: rgb(43, 130, 218); font-size: 16px;&quot;&gt;00000000&amp;nbsp;&lt;/span&gt;&lt;span style=&quot;color: rgb(43, 130, 218); font-size: 16px;&quot;&gt;00000000&lt;/span&gt;&lt;div&gt;&lt;span style=&quot;color: rgb(51, 153, 255); font-size: 16px;&quot;&gt;00000000&amp;nbsp;&lt;/span&gt;&lt;span style=&quot;color: rgb(51, 153, 255); font-size: 16px; background-color: transparent;&quot;&gt;00000000&amp;nbsp;&lt;/span&gt;&lt;span style=&quot;color: rgb(51, 153, 255); font-size: 16px; background-color: transparent;&quot;&gt;00000000&amp;nbsp;&lt;/span&gt;&lt;span style=&quot;color: rgb(51, 153, 255); font-size: 16px; background-color: transparent;&quot;&gt;00000000&amp;nbsp;&lt;/span&gt;&lt;span style=&quot;color: rgb(51, 153, 255); font-size: 16px; background-color: transparent;&quot;&gt;00000000&amp;nbsp;&lt;/span&gt;&lt;span style=&quot;color: rgb(51, 153, 255); font-size: 16px; background-color: transparent;&quot;&gt;00000000&amp;nbsp;&lt;/span&gt;&lt;span style=&quot;color: rgb(51, 153, 255); font-size: 16px; background-color: transparent;&quot;&gt;00000000&amp;nbsp;&lt;/span&gt;&lt;span style=&quot;color: rgb(43, 130, 218); font-size: 16px; background-color: transparent;&quot;&gt;00000000&lt;/span&gt;&lt;/div&gt;&lt;div&gt;&lt;span style=&quot;color: rgb(51, 153, 255); font-size: 16px;&quot;&gt;00000000&amp;nbsp;&lt;/span&gt;&lt;span style=&quot;color: rgb(51, 153, 255); font-size: 16px; background-color: transparent;&quot;&gt;&lt;/span&gt;&lt;span style=&quot;color: rgb(51, 153, 255); font-size: 16px; background-color: transparent;&quot;&gt;00000000&amp;nbsp;&lt;/span&gt;&lt;span style=&quot;color: rgb(51, 153, 255); font-size: 16px; background-color: transparent;&quot;&gt;00000000&amp;nbsp;&lt;/span&gt;&lt;span style=&quot;color: rgb(51, 153, 255); font-size: 16px; background-color: transparent;&quot;&gt;00000000&amp;nbsp;&lt;/span&gt;&lt;span style=&quot;color: rgb(51, 153, 255); font-size: 16px; background-color: transparent;&quot;&gt;00000000&amp;nbsp;&lt;/span&gt;&lt;span style=&quot;color: rgb(51, 153, 255); font-size: 16px; background-color: transparent;&quot;&gt;00000000&amp;nbsp;&lt;/span&gt;&lt;span style=&quot;color: rgb(51, 153, 255); font-size: 16px; background-color: transparent;&quot;&gt;00000000&amp;nbsp;&lt;/span&gt;&lt;span style=&quot;color: rgb(43, 130, 218); font-size: 16px; background-color: transparent;&quot;&gt;00000000&lt;/span&gt;&lt;/div&gt;&lt;div&gt;&lt;span style=&quot;background-color: transparent; color: light-dark(rgb(0, 0, 0), rgb(51, 153, 255)); font-size: 16px;&quot;&gt;00000000&amp;nbsp;&lt;/span&gt;&lt;span style=&quot;color: rgb(51, 153, 255); font-size: 16px;&quot;&gt;00000000&amp;nbsp;&lt;/span&gt;&lt;span style=&quot;color: rgb(51, 153, 255); font-size: 16px;&quot;&gt;00000000&amp;nbsp;&lt;/span&gt;&lt;span style=&quot;color: rgb(51, 153, 255); font-size: 16px;&quot;&gt;00000000&amp;nbsp;&lt;/span&gt;&lt;span style=&quot;color: rgb(51, 153, 255); font-size: 16px;&quot;&gt;00000000&amp;nbsp;&lt;/span&gt;&lt;span style=&quot;color: rgb(51, 153, 255); font-size: 16px;&quot;&gt;00000000&amp;nbsp;&lt;/span&gt;&lt;span style=&quot;color: rgb(43, 130, 218); font-size: 16px;&quot;&gt;00000000&amp;nbsp;&lt;/span&gt;&lt;span style=&quot;color: rgb(43, 130, 218); font-size: 16px;&quot;&gt;00000000&lt;/span&gt;&lt;div&gt;&lt;span style=&quot;color: rgb(51, 153, 255); font-size: 16px;&quot;&gt;00000000&amp;nbsp;&lt;/span&gt;&lt;span style=&quot;color: rgb(51, 153, 255); font-size: 16px; background-color: transparent;&quot;&gt;00000000&amp;nbsp;&lt;/span&gt;&lt;span style=&quot;color: rgb(51, 153, 255); font-size: 16px; background-color: transparent;&quot;&gt;00000000&amp;nbsp;&lt;/span&gt;&lt;span style=&quot;color: rgb(51, 153, 255); font-size: 16px; background-color: transparent;&quot;&gt;00000000&amp;nbsp;&lt;/span&gt;&lt;span style=&quot;color: rgb(51, 153, 255); font-size: 16px; background-color: transparent;&quot;&gt;00000000&amp;nbsp;&lt;/span&gt;&lt;span style=&quot;color: rgb(51, 153, 255); font-size: 16px; background-color: transparent;&quot;&gt;00000000&amp;nbsp;&lt;/span&gt;&lt;span style=&quot;color: rgb(51, 153, 255); font-size: 16px; background-color: transparent;&quot;&gt;00000000&amp;nbsp;&lt;/span&gt;&lt;span style=&quot;color: rgb(43, 130, 218); font-size: 16px; background-color: transparent;&quot;&gt;00000000&lt;/span&gt;&lt;/div&gt;&lt;div&gt;&lt;span style=&quot;color: rgb(51, 153, 255); font-size: 16px;&quot;&gt;00000000&amp;nbsp;&lt;/span&gt;&lt;span style=&quot;color: rgb(51, 153, 255); font-size: 16px; background-color: transparent;&quot;&gt;&lt;/span&gt;&lt;span style=&quot;color: rgb(51, 153, 255); font-size: 16px; background-color: transparent;&quot;&gt;00000000&amp;nbsp;&lt;/span&gt;&lt;span style=&quot;color: rgb(51, 153, 255); font-size: 16px; background-color: transparent;&quot;&gt;00000000&amp;nbsp;&lt;/span&gt;&lt;span style=&quot;color: rgb(51, 153, 255); font-size: 16px; background-color: transparent;&quot;&gt;00000000&amp;nbsp;&lt;/span&gt;&lt;span style=&quot;color: rgb(51, 153, 255); font-size: 16px; background-color: transparent;&quot;&gt;00000000&amp;nbsp;&lt;/span&gt;&lt;span style=&quot;color: rgb(51, 153, 255); font-size: 16px; background-color: transparent;&quot;&gt;00000000&amp;nbsp;&lt;/span&gt;&lt;span style=&quot;color: rgb(51, 153, 255); font-size: 16px; background-color: transparent;&quot;&gt;00000000&amp;nbsp;&lt;/span&gt;&lt;span style=&quot;color: rgb(43, 130, 218); font-size: 16px; background-color: transparent;&quot;&gt;00000000&lt;/span&gt;&lt;/div&gt;&lt;/div&gt;" style="rounded=0;whiteSpace=wrap;html=1;" vertex="1" parent="1">
          <mxGeometry x="1020" y="960" width="660" height="160" as="geometry" />
        </mxCell>
        <mxCell id="kOXrhcx0nlIQc85uz2FX-97" style="edgeStyle=none;curved=1;rounded=0;orthogonalLoop=1;jettySize=auto;html=1;exitX=0.5;exitY=1;exitDx=0;exitDy=0;fontSize=12;startSize=8;endSize=8;" edge="1" parent="1" source="kOXrhcx0nlIQc85uz2FX-92" target="kOXrhcx0nlIQc85uz2FX-93">
          <mxGeometry relative="1" as="geometry" />
        </mxCell>
        <mxCell id="kOXrhcx0nlIQc85uz2FX-92" value="&lt;font style=&quot;font-size: 16px;&quot;&gt;01010011 01110100 01110101 01111001 01000011 01010011 00001010&amp;nbsp;&lt;font style=&quot;color: light-dark(rgb(0, 0, 0), rgb(0, 255, 0));&quot;&gt;1&lt;/font&gt;&lt;font style=&quot;color: light-dark(rgb(0, 0, 0), rgb(51, 153, 255));&quot;&gt;0000000&amp;nbsp; &lt;/font&gt;&lt;/font&gt;&lt;span style=&quot;color: light-dark(rgb(0, 0, 0), rgb(51, 153, 255)); font-size: 16px; background-color: transparent;&quot;&gt;00000000&amp;nbsp;&lt;/span&gt;&lt;span style=&quot;color: rgb(51, 153, 255); font-size: 16px;&quot;&gt;00000000&amp;nbsp;&lt;/span&gt;&lt;span style=&quot;color: rgb(51, 153, 255); font-size: 16px;&quot;&gt;00000000&amp;nbsp;&lt;/span&gt;&lt;span style=&quot;color: rgb(51, 153, 255); font-size: 16px;&quot;&gt;00000000&amp;nbsp;&lt;/span&gt;&lt;span style=&quot;color: rgb(51, 153, 255); font-size: 16px;&quot;&gt;00000000&amp;nbsp;&lt;/span&gt;&lt;span style=&quot;color: rgb(51, 153, 255); font-size: 16px;&quot;&gt;00000000&amp;nbsp;&lt;/span&gt;&lt;span style=&quot;color: rgb(43, 130, 218); font-size: 16px;&quot;&gt;00000000&amp;nbsp;&lt;/span&gt;&lt;span style=&quot;color: rgb(43, 130, 218); font-size: 16px;&quot;&gt;00000000&lt;/span&gt;&lt;div&gt;&lt;span style=&quot;color: rgb(51, 153, 255); font-size: 16px;&quot;&gt;00000000&amp;nbsp;&lt;/span&gt;&lt;span style=&quot;color: rgb(51, 153, 255); font-size: 16px; background-color: transparent;&quot;&gt;00000000&amp;nbsp;&lt;/span&gt;&lt;span style=&quot;color: rgb(51, 153, 255); font-size: 16px; background-color: transparent;&quot;&gt;00000000&amp;nbsp;&lt;/span&gt;&lt;span style=&quot;color: rgb(51, 153, 255); font-size: 16px; background-color: transparent;&quot;&gt;00000000&amp;nbsp;&lt;/span&gt;&lt;span style=&quot;color: rgb(51, 153, 255); font-size: 16px; background-color: transparent;&quot;&gt;00000000&amp;nbsp;&lt;/span&gt;&lt;span style=&quot;color: rgb(51, 153, 255); font-size: 16px; background-color: transparent;&quot;&gt;00000000&amp;nbsp;&lt;/span&gt;&lt;span style=&quot;color: rgb(51, 153, 255); font-size: 16px; background-color: transparent;&quot;&gt;00000000&amp;nbsp;&lt;/span&gt;&lt;span style=&quot;color: rgb(43, 130, 218); font-size: 16px; background-color: transparent;&quot;&gt;00000000&lt;/span&gt;&lt;/div&gt;&lt;div&gt;&lt;span style=&quot;color: rgb(51, 153, 255); font-size: 16px;&quot;&gt;00000000&amp;nbsp;&lt;/span&gt;&lt;span style=&quot;color: rgb(51, 153, 255); font-size: 16px; background-color: transparent;&quot;&gt;&lt;/span&gt;&lt;span style=&quot;color: rgb(51, 153, 255); font-size: 16px; background-color: transparent;&quot;&gt;00000000&amp;nbsp;&lt;/span&gt;&lt;span style=&quot;color: rgb(51, 153, 255); font-size: 16px; background-color: transparent;&quot;&gt;00000000&amp;nbsp;&lt;/span&gt;&lt;span style=&quot;color: rgb(51, 153, 255); font-size: 16px; background-color: transparent;&quot;&gt;00000000&amp;nbsp;&lt;/span&gt;&lt;span style=&quot;color: rgb(51, 153, 255); font-size: 16px; background-color: transparent;&quot;&gt;00000000&amp;nbsp;&lt;/span&gt;&lt;span style=&quot;color: rgb(51, 153, 255); font-size: 16px; background-color: transparent;&quot;&gt;00000000&amp;nbsp;&lt;/span&gt;&lt;span style=&quot;color: rgb(51, 153, 255); font-size: 16px; background-color: transparent;&quot;&gt;00000000&amp;nbsp;&lt;/span&gt;&lt;span style=&quot;color: rgb(43, 130, 218); font-size: 16px; background-color: transparent;&quot;&gt;00000000&lt;/span&gt;&lt;/div&gt;&lt;div&gt;&lt;span style=&quot;background-color: transparent; color: light-dark(rgb(0, 0, 0), rgb(51, 153, 255)); font-size: 16px;&quot;&gt;00000000&amp;nbsp;&lt;/span&gt;&lt;span style=&quot;color: rgb(51, 153, 255); font-size: 16px;&quot;&gt;00000000&amp;nbsp;&lt;/span&gt;&lt;span style=&quot;color: rgb(51, 153, 255); font-size: 16px;&quot;&gt;00000000&amp;nbsp;&lt;/span&gt;&lt;span style=&quot;color: rgb(51, 153, 255); font-size: 16px;&quot;&gt;00000000&amp;nbsp;&lt;/span&gt;&lt;span style=&quot;color: rgb(51, 153, 255); font-size: 16px;&quot;&gt;00000000&amp;nbsp;&lt;/span&gt;&lt;span style=&quot;color: rgb(51, 153, 255); font-size: 16px;&quot;&gt;00000000&amp;nbsp;&lt;/span&gt;&lt;span style=&quot;color: rgb(43, 130, 218); font-size: 16px;&quot;&gt;00000000&amp;nbsp;&lt;/span&gt;&lt;span style=&quot;color: rgb(43, 130, 218); font-size: 16px;&quot;&gt;00000000&lt;/span&gt;&lt;div&gt;&lt;span style=&quot;color: rgb(51, 153, 255); font-size: 16px;&quot;&gt;00000000&amp;nbsp;&lt;/span&gt;&lt;span style=&quot;color: rgb(51, 153, 255); font-size: 16px; background-color: transparent;&quot;&gt;00000000&amp;nbsp;&lt;/span&gt;&lt;span style=&quot;color: rgb(51, 153, 255); font-size: 16px; background-color: transparent;&quot;&gt;00000000&amp;nbsp;&lt;/span&gt;&lt;span style=&quot;color: rgb(51, 153, 255); font-size: 16px; background-color: transparent;&quot;&gt;00000000&amp;nbsp;&lt;/span&gt;&lt;span style=&quot;color: rgb(51, 153, 255); font-size: 16px; background-color: transparent;&quot;&gt;00000000&amp;nbsp;&lt;/span&gt;&lt;span style=&quot;color: rgb(51, 153, 255); font-size: 16px; background-color: transparent;&quot;&gt;00000000&amp;nbsp;&lt;/span&gt;&lt;span style=&quot;color: rgb(51, 153, 255); font-size: 16px; background-color: transparent;&quot;&gt;00000000&amp;nbsp;&lt;/span&gt;&lt;span style=&quot;color: rgb(43, 130, 218); font-size: 16px; background-color: transparent;&quot;&gt;00000000&lt;/span&gt;&lt;/div&gt;&lt;div&gt;&lt;span style=&quot;color: rgb(51, 153, 255); font-size: 16px;&quot;&gt;00000000&amp;nbsp;&lt;/span&gt;&lt;span style=&quot;color: rgb(51, 153, 255); font-size: 16px; background-color: transparent;&quot;&gt;&lt;/span&gt;&lt;span style=&quot;color: rgb(51, 153, 255); font-size: 16px; background-color: transparent;&quot;&gt;00000000&amp;nbsp;&lt;/span&gt;&lt;span style=&quot;color: rgb(51, 153, 255); font-size: 16px; background-color: transparent;&quot;&gt;00000000&amp;nbsp;&lt;/span&gt;&lt;span style=&quot;color: rgb(51, 153, 255); font-size: 16px; background-color: transparent;&quot;&gt;00000000&amp;nbsp;&lt;/span&gt;&lt;span style=&quot;color: rgb(51, 153, 255); font-size: 16px; background-color: transparent;&quot;&gt;00000000&amp;nbsp;&lt;/span&gt;&lt;span style=&quot;color: rgb(51, 153, 255); font-size: 16px; background-color: transparent;&quot;&gt;00000000&amp;nbsp;&lt;/span&gt;&lt;span style=&quot;color: rgb(51, 153, 255); font-size: 16px; background-color: transparent;&quot;&gt;00000000&amp;nbsp;&lt;/span&gt;&lt;span style=&quot;color: rgb(43, 130, 218); font-size: 16px; background-color: transparent;&quot;&gt;00000000&lt;/span&gt;&lt;/div&gt;&lt;/div&gt;&lt;div&gt;&lt;span style=&quot;font-size: 16px; background-color: transparent; color: rgb(43, 130, 218);&quot;&gt;&lt;font style=&quot;color: light-dark(rgb(43, 130, 218), rgb(51, 255, 51));&quot;&gt;00111000&amp;nbsp;&lt;/font&gt;&lt;/span&gt;&lt;/div&gt;" style="rounded=0;whiteSpace=wrap;html=1;" vertex="1" parent="1">
          <mxGeometry x="1020" y="1150" width="660" height="160" as="geometry" />
        </mxCell>
        <mxCell id="kOXrhcx0nlIQc85uz2FX-93" value="&lt;font style=&quot;font-size: 16px;&quot;&gt;01010011 01110100 01110101 01111001 01000011 01010011 00001010&amp;nbsp;&lt;font style=&quot;color: light-dark(rgb(0, 0, 0), rgb(0, 255, 0));&quot;&gt;1&lt;/font&gt;&lt;font style=&quot;color: light-dark(rgb(0, 0, 0), rgb(51, 153, 255));&quot;&gt;0000000&amp;nbsp; &lt;/font&gt;&lt;/font&gt;&lt;span style=&quot;color: light-dark(rgb(0, 0, 0), rgb(51, 153, 255)); font-size: 16px; background-color: transparent;&quot;&gt;00000000&amp;nbsp;&lt;/span&gt;&lt;span style=&quot;color: rgb(51, 153, 255); font-size: 16px;&quot;&gt;00000000&amp;nbsp;&lt;/span&gt;&lt;span style=&quot;color: rgb(51, 153, 255); font-size: 16px;&quot;&gt;00000000&amp;nbsp;&lt;/span&gt;&lt;span style=&quot;color: rgb(51, 153, 255); font-size: 16px;&quot;&gt;00000000&amp;nbsp;&lt;/span&gt;&lt;span style=&quot;color: rgb(51, 153, 255); font-size: 16px;&quot;&gt;00000000&amp;nbsp;&lt;/span&gt;&lt;span style=&quot;color: rgb(51, 153, 255); font-size: 16px;&quot;&gt;00000000&amp;nbsp;&lt;/span&gt;&lt;span style=&quot;color: rgb(43, 130, 218); font-size: 16px;&quot;&gt;00000000&amp;nbsp;&lt;/span&gt;&lt;span style=&quot;color: rgb(43, 130, 218); font-size: 16px;&quot;&gt;00000000&lt;/span&gt;&lt;div&gt;&lt;span style=&quot;color: rgb(51, 153, 255); font-size: 16px;&quot;&gt;00000000&amp;nbsp;&lt;/span&gt;&lt;span style=&quot;color: rgb(51, 153, 255); font-size: 16px; background-color: transparent;&quot;&gt;00000000&amp;nbsp;&lt;/span&gt;&lt;span style=&quot;color: rgb(51, 153, 255); font-size: 16px; background-color: transparent;&quot;&gt;00000000&amp;nbsp;&lt;/span&gt;&lt;span style=&quot;color: rgb(51, 153, 255); font-size: 16px; background-color: transparent;&quot;&gt;00000000&amp;nbsp;&lt;/span&gt;&lt;span style=&quot;color: rgb(51, 153, 255); font-size: 16px; background-color: transparent;&quot;&gt;00000000&amp;nbsp;&lt;/span&gt;&lt;span style=&quot;color: rgb(51, 153, 255); font-size: 16px; background-color: transparent;&quot;&gt;00000000&amp;nbsp;&lt;/span&gt;&lt;span style=&quot;color: rgb(51, 153, 255); font-size: 16px; background-color: transparent;&quot;&gt;00000000&amp;nbsp;&lt;/span&gt;&lt;span style=&quot;color: rgb(43, 130, 218); font-size: 16px; background-color: transparent;&quot;&gt;00000000&lt;/span&gt;&lt;/div&gt;&lt;div&gt;&lt;span style=&quot;color: rgb(51, 153, 255); font-size: 16px;&quot;&gt;00000000&amp;nbsp;&lt;/span&gt;&lt;span style=&quot;color: rgb(51, 153, 255); font-size: 16px; background-color: transparent;&quot;&gt;&lt;/span&gt;&lt;span style=&quot;color: rgb(51, 153, 255); font-size: 16px; background-color: transparent;&quot;&gt;00000000&amp;nbsp;&lt;/span&gt;&lt;span style=&quot;color: rgb(51, 153, 255); font-size: 16px; background-color: transparent;&quot;&gt;00000000&amp;nbsp;&lt;/span&gt;&lt;span style=&quot;color: rgb(51, 153, 255); font-size: 16px; background-color: transparent;&quot;&gt;00000000&amp;nbsp;&lt;/span&gt;&lt;span style=&quot;color: rgb(51, 153, 255); font-size: 16px; background-color: transparent;&quot;&gt;00000000&amp;nbsp;&lt;/span&gt;&lt;span style=&quot;color: rgb(51, 153, 255); font-size: 16px; background-color: transparent;&quot;&gt;00000000&amp;nbsp;&lt;/span&gt;&lt;span style=&quot;color: rgb(51, 153, 255); font-size: 16px; background-color: transparent;&quot;&gt;00000000&amp;nbsp;&lt;/span&gt;&lt;span style=&quot;color: rgb(43, 130, 218); font-size: 16px; background-color: transparent;&quot;&gt;00000000&lt;/span&gt;&lt;/div&gt;&lt;div&gt;&lt;span style=&quot;background-color: transparent; color: light-dark(rgb(0, 0, 0), rgb(51, 153, 255)); font-size: 16px;&quot;&gt;00000000&amp;nbsp;&lt;/span&gt;&lt;span style=&quot;color: rgb(51, 153, 255); font-size: 16px;&quot;&gt;00000000&amp;nbsp;&lt;/span&gt;&lt;span style=&quot;color: rgb(51, 153, 255); font-size: 16px;&quot;&gt;00000000&amp;nbsp;&lt;/span&gt;&lt;span style=&quot;color: rgb(51, 153, 255); font-size: 16px;&quot;&gt;00000000&amp;nbsp;&lt;/span&gt;&lt;span style=&quot;color: rgb(51, 153, 255); font-size: 16px;&quot;&gt;00000000&amp;nbsp;&lt;/span&gt;&lt;span style=&quot;color: rgb(51, 153, 255); font-size: 16px;&quot;&gt;00000000&amp;nbsp;&lt;/span&gt;&lt;span style=&quot;color: rgb(43, 130, 218); font-size: 16px;&quot;&gt;00000000&amp;nbsp;&lt;/span&gt;&lt;span style=&quot;color: rgb(43, 130, 218); font-size: 16px;&quot;&gt;00000000&lt;/span&gt;&lt;div&gt;&lt;span style=&quot;color: rgb(51, 153, 255); font-size: 16px;&quot;&gt;00000000&amp;nbsp;&lt;/span&gt;&lt;span style=&quot;color: rgb(51, 153, 255); font-size: 16px; background-color: transparent;&quot;&gt;00000000&amp;nbsp;&lt;/span&gt;&lt;span style=&quot;color: rgb(51, 153, 255); font-size: 16px; background-color: transparent;&quot;&gt;00000000&amp;nbsp;&lt;/span&gt;&lt;span style=&quot;color: rgb(51, 153, 255); font-size: 16px; background-color: transparent;&quot;&gt;00000000&amp;nbsp;&lt;/span&gt;&lt;span style=&quot;color: rgb(51, 153, 255); font-size: 16px; background-color: transparent;&quot;&gt;00000000&amp;nbsp;&lt;/span&gt;&lt;span style=&quot;color: rgb(51, 153, 255); font-size: 16px; background-color: transparent;&quot;&gt;00000000&amp;nbsp;&lt;/span&gt;&lt;span style=&quot;color: rgb(51, 153, 255); font-size: 16px; background-color: transparent;&quot;&gt;00000000&amp;nbsp;&lt;/span&gt;&lt;span style=&quot;color: rgb(43, 130, 218); font-size: 16px; background-color: transparent;&quot;&gt;00000000&lt;/span&gt;&lt;/div&gt;&lt;div&gt;&lt;span style=&quot;color: rgb(51, 153, 255); font-size: 16px;&quot;&gt;00000000&amp;nbsp;&lt;/span&gt;&lt;span style=&quot;color: rgb(51, 153, 255); font-size: 16px; background-color: transparent;&quot;&gt;&lt;/span&gt;&lt;span style=&quot;color: rgb(51, 153, 255); font-size: 16px; background-color: transparent;&quot;&gt;00000000&amp;nbsp;&lt;/span&gt;&lt;span style=&quot;color: rgb(51, 153, 255); font-size: 16px; background-color: transparent;&quot;&gt;00000000&amp;nbsp;&lt;/span&gt;&lt;span style=&quot;color: rgb(51, 153, 255); font-size: 16px; background-color: transparent;&quot;&gt;00000000&amp;nbsp;&lt;/span&gt;&lt;span style=&quot;color: rgb(51, 153, 255); font-size: 16px; background-color: transparent;&quot;&gt;00000000&amp;nbsp;&lt;/span&gt;&lt;span style=&quot;color: rgb(51, 153, 255); font-size: 16px; background-color: transparent;&quot;&gt;00000000&amp;nbsp;&lt;/span&gt;&lt;span style=&quot;color: rgb(51, 153, 255); font-size: 16px; background-color: transparent;&quot;&gt;00000000&amp;nbsp;&lt;/span&gt;&lt;span style=&quot;color: rgb(43, 130, 218); font-size: 16px; background-color: transparent;&quot;&gt;00000000&lt;/span&gt;&lt;/div&gt;&lt;/div&gt;&lt;div&gt;&lt;span style=&quot;font-size: 16px; background-color: transparent; color: rgb(43, 130, 218);&quot;&gt;&lt;font style=&quot;color: light-dark(rgb(43, 130, 218), rgb(51, 255, 51));&quot;&gt;00111000&amp;nbsp;&lt;/font&gt;&lt;/span&gt;&lt;span style=&quot;color: rgb(43, 130, 218); font-size: 16px; background-color: transparent;&quot;&gt;00000000&lt;/span&gt;&lt;span style=&quot;color: rgb(43, 130, 218); font-size: 16px; background-color: transparent;&quot;&gt;&amp;nbsp;00000000&lt;/span&gt;&lt;span style=&quot;color: rgb(43, 130, 218); font-size: 16px; background-color: transparent;&quot;&gt;&amp;nbsp;00000000&lt;/span&gt;&lt;span style=&quot;color: rgb(43, 130, 218); font-size: 16px; background-color: transparent;&quot;&gt;&amp;nbsp;00000000&lt;/span&gt;&lt;span style=&quot;color: rgb(43, 130, 218); font-size: 16px; background-color: transparent;&quot;&gt;&amp;nbsp;00000000&lt;/span&gt;&lt;span style=&quot;color: rgb(43, 130, 218); font-size: 16px; background-color: transparent;&quot;&gt;&amp;nbsp;00000000&lt;/span&gt;&lt;span style=&quot;color: rgb(43, 130, 218); font-size: 16px; background-color: transparent;&quot;&gt;&amp;nbsp;00000000&lt;/span&gt;&lt;/div&gt;" style="rounded=0;whiteSpace=wrap;html=1;" vertex="1" parent="1">
          <mxGeometry x="1020" y="1340" width="660" height="160" as="geometry" />
        </mxCell>
        <mxCell id="kOXrhcx0nlIQc85uz2FX-102" value="" style="shape=step;perimeter=stepPerimeter;whiteSpace=wrap;html=1;fixedSize=1;size=60;fillColor=#ffe6cc;strokeColor=#d79b00;movable=1;resizable=1;rotatable=1;deletable=1;editable=1;locked=0;connectable=1;" vertex="1" parent="1">
          <mxGeometry x="2450" y="125" width="1000" height="850" as="geometry" />
        </mxCell>
        <mxCell id="kOXrhcx0nlIQc85uz2FX-103" value="Padding&amp;nbsp;" style="text;html=1;align=center;verticalAlign=middle;resizable=0;points=[];autosize=1;strokeColor=none;fillColor=none;fontSize=16;" vertex="1" parent="1">
          <mxGeometry x="2905" y="135" width="90" height="30" as="geometry" />
        </mxCell>
        <mxCell id="kOXrhcx0nlIQc85uz2FX-104" style="edgeStyle=none;curved=1;rounded=0;orthogonalLoop=1;jettySize=auto;html=1;exitX=1;exitY=0.5;exitDx=0;exitDy=0;fontSize=12;startSize=8;endSize=8;" edge="1" parent="1" source="kOXrhcx0nlIQc85uz2FX-105" target="kOXrhcx0nlIQc85uz2FX-107">
          <mxGeometry relative="1" as="geometry" />
        </mxCell>
        <mxCell id="kOXrhcx0nlIQc85uz2FX-105" value="Stuy CS" style="rounded=1;whiteSpace=wrap;html=1;" vertex="1" parent="1">
          <mxGeometry x="2620" y="205" width="90" height="50" as="geometry" />
        </mxCell>
        <mxCell id="kOXrhcx0nlIQc85uz2FX-107" value="&lt;font style=&quot;font-size: 16px;&quot;&gt;01010011 01110100 01110101 01111001 01000011 01010011 00001010&lt;/font&gt;" style="rounded=0;whiteSpace=wrap;html=1;" vertex="1" parent="1">
          <mxGeometry x="2795" y="195" width="310" height="70" as="geometry" />
        </mxCell>
      </root>
    </mxGraphModel>
  </diagram>
</mxfile>
